<mxfile host="app.diagrams.net" modified="2023-04-01T20:33:38.310Z" agent="Mozilla/5.0 (Windows NT 10.0; Win64; x64) AppleWebKit/537.36 (KHTML, like Gecko) Chrome/111.0.0.0 Safari/537.36" etag="WHTUtafEr56vt5M5sY9i" version="21.1.2" type="github">
  <diagram name="Page-1" id="Qx_OrtG0-b1u7Fx8D4Ra">
    <mxGraphModel dx="880" dy="452" grid="1" gridSize="10" guides="1" tooltips="1" connect="1" arrows="1" fold="1" page="1" pageScale="1" pageWidth="850" pageHeight="1100" math="0" shadow="0">
      <root>
        <mxCell id="0" />
        <mxCell id="1" parent="0" />
        <mxCell id="iOdg0bBzSrHCG-4MnEZ0-3" value="" style="edgeStyle=orthogonalEdgeStyle;rounded=0;orthogonalLoop=1;jettySize=auto;html=1;" edge="1" parent="1" source="iOdg0bBzSrHCG-4MnEZ0-1" target="iOdg0bBzSrHCG-4MnEZ0-2">
          <mxGeometry relative="1" as="geometry" />
        </mxCell>
        <mxCell id="iOdg0bBzSrHCG-4MnEZ0-1" value="START" style="ellipse;whiteSpace=wrap;html=1;" vertex="1" parent="1">
          <mxGeometry x="320" y="75" width="120" height="75" as="geometry" />
        </mxCell>
        <mxCell id="iOdg0bBzSrHCG-4MnEZ0-5" value="" style="edgeStyle=orthogonalEdgeStyle;rounded=0;orthogonalLoop=1;jettySize=auto;html=1;" edge="1" parent="1" source="iOdg0bBzSrHCG-4MnEZ0-2" target="iOdg0bBzSrHCG-4MnEZ0-4">
          <mxGeometry relative="1" as="geometry" />
        </mxCell>
        <mxCell id="iOdg0bBzSrHCG-4MnEZ0-12" style="edgeStyle=orthogonalEdgeStyle;rounded=0;orthogonalLoop=1;jettySize=auto;html=1;exitX=1;exitY=0.25;exitDx=0;exitDy=0;" edge="1" parent="1" source="iOdg0bBzSrHCG-4MnEZ0-2">
          <mxGeometry relative="1" as="geometry">
            <mxPoint x="470" y="270" as="targetPoint" />
          </mxGeometry>
        </mxCell>
        <mxCell id="iOdg0bBzSrHCG-4MnEZ0-2" value="READ NUMA,NUMB,NUMC,NUMD" style="shape=parallelogram;perimeter=parallelogramPerimeter;whiteSpace=wrap;html=1;fixedSize=1;" vertex="1" parent="1">
          <mxGeometry x="287.5" y="232" width="185" height="80" as="geometry" />
        </mxCell>
        <mxCell id="iOdg0bBzSrHCG-4MnEZ0-14" value="" style="edgeStyle=orthogonalEdgeStyle;rounded=0;orthogonalLoop=1;jettySize=auto;html=1;" edge="1" parent="1" source="iOdg0bBzSrHCG-4MnEZ0-4" target="iOdg0bBzSrHCG-4MnEZ0-9">
          <mxGeometry relative="1" as="geometry" />
        </mxCell>
        <mxCell id="iOdg0bBzSrHCG-4MnEZ0-4" value="SUM NUMA&lt;sup&gt;2&lt;/sup&gt;+NUMB&lt;sup&gt;2&lt;/sup&gt;+NUMC&lt;sup&gt;2&lt;/sup&gt;+NUMD&lt;sup&gt;2&lt;/sup&gt;" style="rounded=1;whiteSpace=wrap;html=1;" vertex="1" parent="1">
          <mxGeometry x="150" y="380" width="460" height="67.5" as="geometry" />
        </mxCell>
        <mxCell id="iOdg0bBzSrHCG-4MnEZ0-10" value="" style="edgeStyle=orthogonalEdgeStyle;rounded=0;orthogonalLoop=1;jettySize=auto;html=1;" edge="1" parent="1" source="iOdg0bBzSrHCG-4MnEZ0-9" target="iOdg0bBzSrHCG-4MnEZ0-16">
          <mxGeometry relative="1" as="geometry">
            <mxPoint x="380" y="490" as="targetPoint" />
            <Array as="points">
              <mxPoint x="380" y="440" />
              <mxPoint x="380" y="440" />
            </Array>
          </mxGeometry>
        </mxCell>
        <mxCell id="iOdg0bBzSrHCG-4MnEZ0-9" value="END" style="ellipse;whiteSpace=wrap;html=1;" vertex="1" parent="1">
          <mxGeometry x="320" y="620" width="120" height="80" as="geometry" />
        </mxCell>
        <mxCell id="iOdg0bBzSrHCG-4MnEZ0-13" style="edgeStyle=orthogonalEdgeStyle;rounded=0;orthogonalLoop=1;jettySize=auto;html=1;exitX=0.5;exitY=0;exitDx=0;exitDy=0;" edge="1" parent="1" source="iOdg0bBzSrHCG-4MnEZ0-4" target="iOdg0bBzSrHCG-4MnEZ0-4">
          <mxGeometry relative="1" as="geometry">
            <Array as="points">
              <mxPoint x="380" y="420" />
              <mxPoint x="380" y="420" />
            </Array>
          </mxGeometry>
        </mxCell>
        <mxCell id="iOdg0bBzSrHCG-4MnEZ0-16" value="WRITE SUM" style="shape=parallelogram;perimeter=parallelogramPerimeter;whiteSpace=wrap;html=1;fixedSize=1;" vertex="1" parent="1">
          <mxGeometry x="320" y="500" width="120" height="60" as="geometry" />
        </mxCell>
      </root>
    </mxGraphModel>
  </diagram>
</mxfile>
